# xmcd CD database file
#
# Track frame offsets:
#	150
#	11768
#	26203
#	35561
#	46322
#	57965
#	69674
#	82099
#	96582
#	109567
#	122694
#	135049
#	151260
#	160554
#	171999
#	185049
#
# Disc length: 2654 seconds
#
# Revision: 0
# Processed by: cddbd v1.5.2PL0 Copyright (c) Steve Scherf et al.
# Submitted via: CDex 1.51
#
DISCID=d40a5c10
DTITLE=Various Artist - Pachanga Hot Mix 3
DYEAR=2005
DGENRE=Salsa
TTITLE0=Una Copa Mas
TTITLE1=Pasito Tun Tun
TTITLE2=Cumbia Raquel
TTITLE3=Yolanda
TTITLE4=El Mudo
TTITLE5=Otra Oportunidad
TTITLE6=Tu Papa y Tu Mama
TTITLE7=Pa' Gozar
TTITLE8=El Ultimo Romantico
TTITLE9=Descarga Bakkan
TTITLE10=Enamorado Estoy de Ti
TTITLE11=Arrepentida
TTITLE12=El Bardo
TTITLE13=El Dia que Puedas
TTITLE14=Me Estas Usando
TTITLE15=Desconocida Situacion
EXTD=YEAR: 2005
EXTT0=
EXTT1=
EXTT2=
EXTT3=
EXTT4=
EXTT5=
EXTT6=
EXTT7=
EXTT8=
EXTT9=
EXTT10=
EXTT11=
EXTT12=
EXTT13=
EXTT14=
EXTT15=
PLAYORDER=
